<?xml version="1.0" encoding="utf-8"?>
<!-- Generator: Adobe Illustrator 24.1.1, SVG Export Plug-In . SVG Version: 6.00 Build 0)  -->
<svg version="1.1" id="Layer_1" xmlns="http://www.w3.org/2000/svg" xmlns:xlink="http://www.w3.org/1999/xlink" x="0px" y="0px"
	 viewBox="0 0 210 50" enable-background="new 0 0 210 50" xml:space="preserve">
<path fill="#1877F2" d="M42.8,25c0,10.5-7.7,19.2-17.8,20.8V31.1h4.9l0.9-6.1H25v-4c0-1.7,0.8-3.3,3.4-3.3h2.7v-5.2
	c0,0-2.4-0.4-4.7-0.4c-4.8,0-8,2.9-8,8.2V25h-5.4v6.1h5.4v14.7C8.4,44.2,0.7,35.5,0.7,25c0-11.6,9.4-21.1,21.1-21.1
	S42.8,13.4,42.8,25z"/>
<g>
	<path d="M70.7,26.5H59.8v11.3h-3.5V12.2h16.1v2.7H59.8v8.8h10.8V26.5z"/>
	<path d="M86.9,37.8c-0.1-0.6-0.2-1.1-0.3-1.5c-0.1-0.4-0.1-0.9-0.1-1.3c-0.6,0.9-1.5,1.7-2.5,2.3c-1,0.6-2.2,0.9-3.4,0.9
		c-2,0-3.5-0.5-4.5-1.5c-1-1-1.6-2.4-1.6-4.2c0-1.8,0.7-3.2,2.2-4.3c1.5-1,3.5-1.5,6-1.5h3.8v-1.9c0-1.1-0.3-2-1-2.7
		c-0.7-0.7-1.6-1-2.9-1c-1.1,0-2,0.3-2.7,0.8s-1,1.2-1,2l-3.3,0l0-0.1c-0.1-1.4,0.6-2.7,1.9-3.8c1.4-1.2,3.2-1.7,5.3-1.7
		c2.2,0,3.9,0.5,5.2,1.6c1.3,1.1,2,2.7,2,4.7V34c0,0.7,0,1.3,0.1,2c0.1,0.6,0.2,1.3,0.4,1.9H86.9z M81.2,35.3c1.3,0,2.4-0.3,3.4-1
		c1-0.6,1.7-1.4,2-2.2V29h-3.9c-1.4,0-2.5,0.4-3.4,1.1c-0.8,0.7-1.3,1.5-1.3,2.5c0,0.8,0.3,1.5,0.8,2C79.3,35.1,80.1,35.3,81.2,35.3
		z"/>
	<path d="M102.6,35.5c1.1,0,2-0.4,2.8-1.1c0.8-0.7,1.2-1.6,1.2-2.6h3.1l0.1,0.1c0,1.6-0.7,3.1-2.1,4.4s-3.1,1.9-5.1,1.9
		c-2.7,0-4.7-0.9-6.2-2.7c-1.5-1.8-2.2-4.1-2.2-6.8v-0.7c0-2.7,0.7-4.9,2.2-6.8c1.5-1.8,3.5-2.7,6.2-2.7c2.1,0,3.9,0.7,5.2,2
		c1.4,1.3,2,2.9,2,4.8l0,0.1h-3.2c0-1.2-0.4-2.2-1.1-3c-0.8-0.8-1.7-1.2-2.9-1.2c-1.7,0-2.9,0.7-3.7,2s-1.2,2.9-1.2,4.8v0.7
		c0,1.9,0.4,3.5,1.2,4.8C99.6,34.8,100.9,35.5,102.6,35.5z"/>
	<path d="M121.8,38.2c-2.7,0-4.9-0.9-6.4-2.6c-1.5-1.7-2.3-4.1-2.3-6.9v-0.8c0-2.7,0.8-5,2.4-6.8c1.6-1.8,3.5-2.7,5.8-2.7
		c2.5,0,4.5,0.8,5.7,2.4s1.9,3.7,1.9,6.3V29h-12.2l-0.1,0.1c0,1.9,0.4,3.5,1.3,4.7c0.8,1.2,2.1,1.8,3.9,1.8c1.2,0,2.2-0.2,3.1-0.5
		c0.9-0.3,1.6-0.8,2.3-1.4l1.4,2.3c-0.7,0.7-1.6,1.2-2.7,1.7C124.7,38,123.4,38.2,121.8,38.2z M121.3,21.2c-1.2,0-2.2,0.5-3,1.4
		c-0.8,0.9-1.3,2.1-1.5,3.6l0,0.1h8.6v-0.3c0-1.4-0.3-2.5-1-3.4C123.7,21.6,122.7,21.2,121.3,21.2z"/>
	<path d="M149.1,29c0,2.7-0.7,5-2,6.6c-1.3,1.7-3.1,2.5-5.5,2.5c-1.3,0-2.4-0.2-3.3-0.7c-0.9-0.5-1.7-1.2-2.3-2.2l-0.6,2.6h-2.7
		V10.4h3.5V21c0.6-0.8,1.3-1.5,2.2-1.9c0.9-0.4,1.9-0.7,3.1-0.7c2.3,0,4.2,0.9,5.5,2.8c1.3,1.9,2,4.3,2,7.4V29z M145.6,28.7
		c0-2.2-0.4-4-1.2-5.3s-2-2.1-3.7-2.1c-1.1,0-2,0.3-2.7,0.8s-1.3,1.2-1.8,2.1v8.3c0.4,0.9,1,1.7,1.8,2.2c0.7,0.5,1.6,0.8,2.7,0.8
		c1.6,0,2.8-0.6,3.6-1.7s1.2-2.7,1.2-4.6V28.7z"/>
	<path d="M152.5,28.1c0-2.8,0.8-5.1,2.3-7s3.6-2.7,6.2-2.7c2.6,0,4.7,0.9,6.3,2.7c1.5,1.8,2.3,4.1,2.3,7v0.4c0,2.8-0.8,5.2-2.3,7
		s-3.6,2.7-6.2,2.7c-2.6,0-4.7-0.9-6.2-2.7c-1.5-1.8-2.3-4.1-2.3-7V28.1z M156,28.5c0,2,0.4,3.7,1.3,5c0.9,1.3,2.1,2,3.8,2
		c1.7,0,2.9-0.7,3.8-2c0.9-1.3,1.3-3,1.3-5v-0.4c0-2-0.4-3.7-1.3-5c-0.9-1.3-2.1-2-3.8-2c-1.7,0-2.9,0.7-3.8,2c-0.9,1.3-1.3,3-1.3,5
		V28.5z"/>
	<path d="M173,28.1c0-2.8,0.8-5.1,2.3-7s3.6-2.7,6.2-2.7c2.6,0,4.7,0.9,6.3,2.7c1.5,1.8,2.3,4.1,2.3,7v0.4c0,2.8-0.8,5.2-2.3,7
		c-1.5,1.8-3.6,2.7-6.2,2.7c-2.6,0-4.7-0.9-6.2-2.7c-1.5-1.8-2.3-4.1-2.3-7V28.1z M176.5,28.5c0,2,0.4,3.7,1.3,5
		c0.9,1.3,2.1,2,3.8,2c1.7,0,2.9-0.7,3.8-2s1.3-3,1.3-5v-0.4c0-2-0.4-3.7-1.3-5c-0.9-1.3-2.1-2-3.8-2c-1.7,0-2.9,0.7-3.8,2
		c-0.9,1.3-1.3,3-1.3,5V28.5z"/>
	<path d="M199.6,29h-1.8v8.8h-3.5V10.4h3.5v15.9h1.7l5.7-7.5h4.2l-6.9,8.8l7.5,10.3h-4.1L199.6,29z"/>
</g>
</svg>
