<?xml version="1.0" encoding="utf-8"?>
<!-- Generator: Adobe Illustrator 24.1.1, SVG Export Plug-In . SVG Version: 6.00 Build 0)  -->
<svg version="1.1" id="Layer_1" xmlns="http://www.w3.org/2000/svg" xmlns:xlink="http://www.w3.org/1999/xlink" x="0px" y="0px"
	 viewBox="0 0 710 40.8" enable-background="new 0 0 710 40.8" xml:space="preserve">
<path fill="#3498DB" d="M0,0v40.8h25.2c0-12.4,10-22.4,22.4-22.4S70,28.4,70,40.8h24c0-12.4,10-22.4,22.4-22.4s22.4,10,22.4,22.4h24
	c0-12.4,10-22.4,22.4-22.4s22.8,10,22.8,22.4h24c0-12.4,10-22.4,22.4-22.4s22.4,10,22.4,22.4h24c0-12.4,10-22.4,22.4-22.4
	s22.4,10,22.4,22.4h24c0-12.4,10-22.4,22.4-22.4s22.4,10,22.4,22.4h24c0-12.4,10-22.4,22.4-22.4s22.4,10,22.4,22.4h24
	c0-12.4,10-22.4,22.4-22.4c12.4,0,22.4,10,22.4,22.4h24c0-12.4,10-22.4,22.4-22.4c12.4,0,22.4,10,22.4,22.4h24
	c0-12.4,10-22.4,22.4-22.4c12.4,0,22.4,10,22.4,22.4h20V0H0z"/>
</svg>
