<?xml version="1.0" encoding="utf-8"?>
<!-- Generator: Adobe Illustrator 24.1.1, SVG Export Plug-In . SVG Version: 6.00 Build 0)  -->
<svg version="1.1" id="Layer_1" xmlns="http://www.w3.org/2000/svg" xmlns:xlink="http://www.w3.org/1999/xlink" x="0px" y="0px"
	 viewBox="0 0 710 40.8" enable-background="new 0 0 710 40.8" xml:space="preserve">
<path fill="#3498DB" d="M710,40.8V0h-25.2c0,12.4-10,22.4-22.4,22.4S640,12.4,640,0h-24c0,12.4-10,22.4-22.4,22.4
	s-22.4-10-22.4-22.4h-24c0,12.4-10,22.4-22.4,22.4s-22.4-10-22.4-22.4h-24c0,12.4-10,22.4-22.4,22.4s-22.4-10-22.4-22.4h-24
	c0,12.4-10,22.4-22.4,22.4s-22.8-10-22.8-22.4h-24c0,12.4-10,22.4-22.4,22.4s-22.4-10-22.4-22.4h-24c0,12.4-10,22.4-22.4,22.4
	s-22.4-10-22.4-22.4h-24c0,12.4-10,22.4-22.4,22.4s-22.8-10-22.8-22.4h-24c0,12.4-10,22.4-22.4,22.4S88.8,12.4,88.8,0h-24
	c0,12.4-10,22.4-22.4,22.4S20,12.4,20,0H0v40.8H710z"/>
</svg>
