<?xml version="1.0" encoding="utf-8"?>
<!-- Generator: Adobe Illustrator 24.1.1, SVG Export Plug-In . SVG Version: 6.00 Build 0)  -->
<svg version="1.1" id="Layer_1" xmlns="http://www.w3.org/2000/svg" xmlns:xlink="http://www.w3.org/1999/xlink" x="0px" y="0px"
	 viewBox="0 0 710 214" enable-background="new 0 0 710 214" xml:space="preserve">
<g>
	<path fill="#3498DB" d="M80.7,74V58h-18v16h-8v-38h8v14.8h18V36.1h8v38H80.7L80.7,74z"/>
	<path fill="#3498DB" d="M96.3,74v-38h8v38H96.3L96.3,74z"/>
	<path fill="#3498DB" d="M123.8,68.8l4.4-6c2.8,2.8,6.8,5.2,12,5.2c4.4,0,6.4-2,6.4-4.4c0-6.8-22-2-22-16.4
		c0-6.4,5.6-11.6,14.4-11.6c6,0,11.2,2,14.8,5.2l-4.4,6c-3.2-2.8-7.2-4-11.2-4c-3.6,0-5.6,1.6-5.6,3.6c0,6,22,2,22,16
		c0,6.8-4.8,12-15.2,12C132.6,74.8,127.4,72.4,123.8,68.8z"/>
	<path fill="#3498DB" d="M158.6,55.2c0-11.6,8.4-19.6,19.6-19.6c11.6,0,20,8.4,20,19.6s-8.4,19.6-20,19.6
		C167,74.8,158.6,66.4,158.6,55.2z M190.2,55.2c0-7.2-4.4-12.4-11.6-12.4c-7.2,0-11.6,5.2-11.6,12.4s4.4,12.4,11.6,12.4
		C185.4,67.6,190.2,62.4,190.2,55.2z"/>
	<path fill="#3498DB" d="M202.2,55.2c0-11.6,8.8-19.6,20-19.6c8.4,0,13.2,4.4,16,9.2l-6.8,3.6c-1.6-3.2-5.2-5.6-8.8-5.6
		c-6.8,0-12,5.2-12,12.4s5.2,12.4,12,12.4c4,0,7.2-2.4,8.8-5.6l6.8,3.2c-2.8,4.8-7.6,9.2-16,9.2C211,74.8,202.2,66.8,202.2,55.2z"/>
	<path fill="#3498DB" d="M242.9,74v-38h8v38H242.9L242.9,74z"/>
	<path fill="#3498DB" d="M258.5,74v-38h26.8v7.2h-18.8v8h18.4v7.2h-18.4v8.8h18.8v7.2L258.5,74L258.5,74z"/>
	<path fill="#3498DB" d="M300.5,74V43.3h-11.2v-7.2h30.4v7.2h-11.2V74H300.5L300.5,74z"/>
	<path fill="#3498DB" d="M335.3,74V58.4l-14.4-22.4h9.2l9.6,15.2l9.2-15.2h9.2l-14.4,22.4V74H335.3z"/>
	<path fill="#3498DB" d="M54.3,122.4V95.6h9.2c8.4,0,13.6,6,13.6,13.6c0,7.6-5.2,13.2-13.6,13.2H54.3L54.3,122.4z M73.5,108.8
		c0-6-3.6-10.4-10.4-10.4h-5.6v20.8h6C69.9,119.2,73.5,114.8,73.5,108.8z"/>
	<path fill="#3498DB" d="M81.9,98c0-0.8,0.8-2,2-2s2,0.8,2,2s-1.2,2-2,2C82.7,100,81.9,99.2,81.9,98z M82.3,122.4v-19.6h3.2v19.6
		H82.3z"/>
	<path fill="#3498DB" d="M91.1,127.2l1.6-2.4c1.6,2,3.6,2.8,6.4,2.8c3.2,0,6.4-1.6,6.4-6v-2.8c-1.6,2-3.6,3.6-6.4,3.6
		c-5.2,0-8.8-3.6-8.8-10c0-6.4,3.6-10,8.8-10c2.4,0,4.8,1.2,6.4,3.6v-2.8h3.2V122c0,6.4-4.4,8.4-9.2,8.4
		C95.9,130,93.5,129.6,91.1,127.2z M105.1,116.8v-8.4c-1.2-1.6-3.2-3.2-5.6-3.2c-4,0-6.4,3.2-6.4,7.6s2.4,7.6,6.4,7.6
		C101.9,120,104.3,118.4,105.1,116.8z"/>
	<path fill="#3498DB" d="M113.8,98c0-1.2,0.8-2,2-2s2,0.8,2,2s-0.8,2-2,2C114.6,100,113.8,99.2,113.8,98z M114.2,122.4v-19.6h3.2
		v19.6H114.2z"/>
	<path fill="#3498DB" d="M123.8,118.4v-12.8h-3.2v-2.8h3.2v-5.2h3.2v5.2h4v2.8h-4v12c0,1.6,0.8,2.4,2,2.4c0.8,0,1.6-0.4,2-0.8
		l0.8,2.4c-0.8,0.8-2,1.2-3.6,1.2C125.4,122.8,123.8,121.2,123.8,118.4z"/>
	<path fill="#3498DB" d="M147,122.4V120c-1.6,1.6-4,2.8-6.4,2.8c-3.2,0-6.8-2-6.8-6.4c0-4.4,3.6-6.4,6.8-6.4c2.8,0,4.8,0.8,6.4,2.8
		v-3.6c0-2.4-2-4-4.8-4c-2.4,0-4,0.8-6,2.8l-1.6-2c2-2,4.4-3.2,7.6-3.2c4,0,7.6,2,7.6,6.4v13.2C150.2,122.4,147,122.4,147,122.4z
		 M147,118v-3.6c-1.2-1.6-3.2-2.4-5.2-2.4c-2.8,0-4.8,1.6-4.8,4.4c0,2.4,2,4,4.8,4C143.8,120.4,146.2,120,147,118z"/>
	<path fill="#3498DB" d="M156.2,122.4V95.6h3.2v26.8C159.4,122.4,156.2,122.4,156.2,122.4z"/>
	<path fill="#3498DB" d="M174.6,108.8c0-8.4,6-14,13.6-14c4.8,0,8,2,10.4,5.2l-2.8,1.6c-1.6-2-4.4-3.6-7.6-3.6
		c-6,0-10.4,4.4-10.4,10.8c0,6.4,4.4,10.8,10.4,10.8c3.2,0,6-1.6,7.2-2.8v-5.6h-8.8v-2.8H199v9.6c-2.4,2.8-6,4.4-10.4,4.4
		C180.6,122.8,174.6,117.2,174.6,108.8z"/>
	<path fill="#3498DB" d="M216.6,122.4V120c-1.6,1.6-4,2.8-6.4,2.8c-3.2,0-6.8-2-6.8-6.4c0-4.4,3.6-6.4,6.8-6.4
		c2.8,0,4.8,0.8,6.4,2.8v-3.6c0-2.4-2-4-4.8-4c-2.4,0-4,0.8-6,2.8l-1.2-2c2-2,4.8-3.2,7.6-3.2c4,0,7.6,2,7.6,6.4v13.2
		C219.4,122.4,216.6,122.4,216.6,122.4z M216.6,118v-3.6c-1.2-1.6-3.2-2.4-5.2-2.4c-2.8,0-4.8,1.6-4.8,4.4c0,2.4,2,4,4.8,4
		C213.4,120.4,215.4,120,216.6,118z"/>
	<path fill="#3498DB" d="M226.2,118.4v-12.8H223v-2.8h3.2v-5.2h3.2v5.2h4v2.8h-4v12c0,1.6,0.8,2.4,2,2.4c0.8,0,1.6-0.4,2-0.8
		l0.8,2.4c-0.8,0.8-2,1.2-3.6,1.2C227.4,122.8,226.2,121.2,226.2,118.4z"/>
	<path fill="#3498DB" d="M236.1,112.4c0-5.6,4-10,9.6-10c6,0,9.2,4.4,9.2,10.4v0.8h-15.6c0.4,3.6,2.8,6.8,7.2,6.8c2,0,4.4-0.8,6-2.4
		l1.6,2c-2,2-4.4,2.8-7.6,2.8C240.1,122.8,236.1,118.8,236.1,112.4z M245.7,104.8c-4,0-6,3.6-6.4,6.4h12.8
		C251.7,108.4,250.1,104.8,245.7,104.8z"/>
	<path fill="#3498DB" d="M270.1,122.4V95.6h10.8c5.2,0,8.4,3.6,8.4,8c0,4.4-3.2,8-8.4,8h-7.6v10.8
		C273.3,122.4,270.1,122.4,270.1,122.4z M286.1,103.6c0-3.2-2-5.2-5.2-5.2h-7.2v10h7.2C283.7,108.8,286.1,106.4,286.1,103.6z"/>
	<path fill="#3498DB" d="M304.9,122.4V120c-1.6,1.6-4,2.8-6.4,2.8c-3.2,0-6.8-2-6.8-6.4c0-4.4,3.6-6.4,6.8-6.4
		c2.8,0,4.8,0.8,6.4,2.8v-3.6c0-2.4-2-4-4.8-4c-2.4,0-4,0.8-6,2.8l-1.2-2c2-2,4.4-3.2,7.6-3.2c4,0,7.6,2,7.6,6.4v13.2
		C308.1,122.4,304.9,122.4,304.9,122.4z M304.9,118v-3.6c-1.2-1.6-3.2-2.4-5.2-2.4c-2.8,0-4.8,1.6-4.8,4.4c0,2.4,2,4,4.8,4
		C301.7,120.4,303.7,120,304.9,118z"/>
	<path fill="#3498DB" d="M312.5,119.6l1.6-2c1.2,1.6,3.6,2.8,6.4,2.8s4.4-1.6,4.4-3.2c0-4.8-12-2-12-9.2c0-3.2,2.8-5.6,7.2-5.6
		c3.2,0,5.6,1.2,7.2,2.8l-1.2,2c-1.2-1.6-3.2-2.4-5.6-2.4c-2.8,0-4.4,1.2-4.4,3.2c0,4.4,12,1.6,12,9.2c0,3.2-2.8,6-7.6,6
		C316.9,122.8,314.5,122,312.5,119.6z"/>
	<path fill="#3498DB" d="M330.9,119.6l1.6-2c1.2,1.6,3.6,2.8,6.4,2.8c2.8,0,4.4-1.6,4.4-3.2c0-4.8-12-2-12-9.2
		c0-3.2,2.8-5.6,7.2-5.6c3.2,0,5.6,1.2,7.2,2.8l-1.2,2c-1.2-1.6-3.2-2.4-5.6-2.4c-2.8,0-4.4,1.2-4.4,3.2c0,4.4,12,1.6,12,9.2
		c0,3.2-2.8,6-7.6,6C335.7,122.8,332.9,122,330.9,119.6z"/>
	<path fill="#3498DB" d="M349.7,119.6l1.6-2c1.2,1.6,3.6,2.8,6.4,2.8c2.8,0,4.4-1.6,4.4-3.2c0-4.8-12-2-12-9.2
		c0-3.2,2.8-5.6,7.2-5.6c3.2,0,5.6,1.2,7.2,2.8l-1.2,2c-1.2-1.6-3.2-2.4-5.6-2.4c-2.8,0-4.4,1.2-4.4,3.2c0,4.4,12,1.6,12,9.2
		c0,3.2-2.8,6-7.6,6C354.5,122.8,351.7,122,349.7,119.6z"/>
</g>
<g>
	<g>
		<path fill="#3A3A3A" d="M53.5,162l1.6,6c0.4,1.2,0.8,2.8,0.8,4l0,0c0.4-1.2,0.8-2.4,1.2-4l2-6.4h2l2,6.4c0.4,1.6,0.8,2.8,1.2,4
			l0,0c0-1.2,0.4-2.4,0.8-4l1.6-6h2.4l-4,12.4h-2l-2-6c-0.4-1.2-0.8-2.8-1.2-4l0,0c-0.4,1.6-0.8,2.8-1.2,4l-2,6h-2L51.1,162H53.5z"
			/>
		<path fill="#3A3A3A" d="M72.3,162l1.6,6c0.4,1.2,0.8,2.8,0.8,4l0,0c0.4-1.2,0.8-2.4,1.2-4l2-6.4h2l2,6.4c0.4,1.6,0.8,2.8,1.2,4
			l0,0c0.4-1.2,0.4-2.4,0.8-4l1.6-6h2.4l-4,12.4h-2l-2-6c-0.4-1.2-0.8-2.8-1.2-4l0,0c-0.4,1.6-0.8,2.8-1.2,4l-2,6h-1.6L70.3,162
			H72.3z"/>
		<path fill="#3A3A3A" d="M91.5,162l1.6,6.4c0.4,1.2,0.8,2.8,0.8,4l0,0c0.4-1.2,0.8-2.4,1.2-4l2-6.4h2l2,6c0.4,1.6,0.8,2.8,1.2,4
			l0,0c0.4-1.2,0.4-2.4,0.8-4l1.6-6h2.4l-4,12.4h-2l-2-6c-0.4-1.2-0.8-2.8-1.2-4l0,0c-0.4,1.6-0.8,2.8-1.2,4l-2,5.6h-2l-3.6-12.4
			h2.4V162z"/>
		<path fill="#3A3A3A" d="M107.5,172.7c0-0.8,0.8-1.6,1.6-1.6s1.6,0.8,1.6,1.6s-0.4,1.6-1.6,1.6
			C108.3,174.3,107.5,173.5,107.5,172.7z"/>
		<path fill="#3A3A3A" d="M113.4,156h2.4v7.6l0,0c0.4-0.8,0.8-1.2,1.6-1.6c0.8-0.4,1.6-0.8,2.4-0.8c1.6,0,4.4,1.2,4.4,5.2v7.2h-2.4
			v-7.2c0-2-0.8-3.6-2.8-3.6c-1.6,0-2.4,1.2-3.2,2.4c0,0.4,0,0.8,0,1.2v7.2h-2.4L113.4,156L113.4,156z"/>
		<path fill="#3A3A3A" d="M129.8,158.4c0,0.8-0.4,1.2-1.6,1.2c-0.8,0-1.2-0.8-1.2-1.2c0-0.8,0.4-1.2,1.6-1.2
			C129.4,157.2,129.8,157.6,129.8,158.4z M127.4,173.9v-12.4h2.4v12.4H127.4z"/>
		<path fill="#3A3A3A" d="M133,171.9c0.8,0.4,2,0.8,2.8,0.8c1.6,0,2.4-0.8,2.4-2c0-1.2-0.8-1.6-2.4-2.4c-2-0.8-3.2-2-3.2-3.6
			c0-2,1.6-3.6,4.4-3.6c1.2,0,2.4,0.4,3.2,0.8l-0.4,2c-0.4-0.4-1.2-0.8-2.4-0.8c-1.2,0-2,0.8-2,1.6c0,1.2,0.8,1.6,2.4,2
			c2,0.8,3.2,2,3.2,3.6c0,2-1.6,3.6-4.4,3.6c-1.2,0-2.4-0.4-3.6-0.8L133,171.9z"/>
		<path fill="#3A3A3A" d="M154.6,167.9c0,4.4-3.2,6.4-6,6.4c-3.6,0-6-2.4-6-6.4s2.8-6.4,6-6.4C152.2,161.6,154.6,164,154.6,167.9z
			 M144.6,167.9c0,2.8,1.6,4.8,3.6,4.8c2,0,3.6-2,3.6-4.8c0-2-1.2-4.8-3.6-4.8C145.8,163.2,144.6,165.6,144.6,167.9z"/>
		<path fill="#3A3A3A" d="M166.2,173.5c-0.4,0.4-2,0.8-3.6,0.8c-3.6,0-6-2.4-6-6.4s2.4-6.4,6.4-6.4c1.2,0,2.4,0.4,3.2,0.8l-0.4,1.6
			c-0.4-0.4-1.2-0.8-2.4-0.8c-2.8,0-4.4,2-4.4,4.8c0,2.8,2,4.8,4.4,4.8c1.2,0,2-0.4,2.8-0.8V173.5z"/>
		<path fill="#3A3A3A" d="M171,158.4c0,0.8-0.4,1.2-1.6,1.2c-0.8,0-1.2-0.8-1.2-1.2c0-0.8,0.4-1.2,1.6-1.2
			C170.6,157.2,171,157.6,171,158.4z M168.6,173.9v-12.4h2.4v12.4H168.6z"/>
		<path fill="#3A3A3A" d="M175.8,168.3c0,3.2,2,4.4,4.4,4.4c1.6,0,2.4-0.4,3.2-0.8l0.4,1.6c-0.8,0.4-2,0.8-4,0.8c-4,0-6-2.4-6-6
			c0-3.6,2-6.8,5.6-6.8c4,0,5.2,3.6,5.2,6c0,0.4,0,0.8,0,1.2h-8.8V168.3z M182.6,166.8c0-1.6-0.8-3.6-3.2-3.6s-3.2,2-3.6,3.6H182.6z
			"/>
		<path fill="#3A3A3A" d="M190.2,158.4v3.6h3.2v1.6h-3.2v6.8c0,1.6,0.4,2.4,1.6,2.4c0.8,0,1.2,0,1.2,0v1.6c-0.4,0-1.2,0.4-2,0.4
			c-1.2,0-2-0.4-2.4-0.8c-0.8-0.8-0.8-1.6-0.8-3.2V164h-2v-1.6h2v-2.8L190.2,158.4z"/>
		<path fill="#3A3A3A" d="M196.6,162l2.8,7.2c0.4,0.8,0.8,1.6,0.8,2.4l0,0c0.4-0.8,0.4-1.6,0.8-2.4l2.4-7.2h2.4l-3.2,8.8
			c-1.6,4-2.8,6.4-4,7.6c-1.2,0.8-2,1.2-2.8,1.6l-0.4-2c0.4,0,1.2-0.4,2-1.2c0.8-0.4,1.2-1.2,2-2.4c0-0.4,0-0.4,0-0.4s0-0.4,0-0.8
			L195,162L196.6,162L196.6,162z"/>
		<path fill="#3A3A3A" d="M207.8,173.9c0-0.8,0-2,0-3.2V156h2v8l0,0c0.8-1.2,2-2.4,4-2.4c3.2,0,5.2,2.4,5.2,6.4
			c0,4.4-2.8,6.4-5.6,6.4c-1.6,0-3.2-0.8-4-2.4l0,0v2H207.8L207.8,173.9z M210.2,169.1c0,0.4,0,0.4,0,0.8c0.4,1.6,1.6,2.8,3.2,2.8
			c2.4,0,3.6-2,3.6-4.8c0-2.4-1.2-4.4-3.6-4.4c-1.6,0-2.8,1.2-3.2,2.8c0,0.4,0,0.4,0,0.8V169.1L210.2,169.1z"/>
		<path fill="#3A3A3A" d="M233,156v14.8c0,1.2,0,2.4,0,3.2h-2v-2l0,0c-0.8,1.2-2,2.4-4,2.4c-2.8,0-5.2-2.4-5.2-6.4s2.4-6.8,5.6-6.8
			c2,0,3.2,0.8,3.6,2l0,0V156C230.6,156,233,156,233,156z M230.6,166.8c0-0.4,0-0.8,0-0.8c-0.4-1.6-1.6-2.8-3.2-2.8
			c-2.4,0-3.6,2-3.6,4.8c0,2.4,1.2,4.4,3.6,4.4c1.6,0,2.8-1.2,3.2-2.8c0-0.4,0-0.8,0-0.8V166.8z"/>
		<path fill="#3A3A3A" d="M235.7,172.7c0-0.8,0.8-1.6,1.6-1.6c0.8,0,1.6,0.8,1.6,1.6s-0.8,1.6-1.6,1.6
			C236.5,174.3,235.7,173.5,235.7,172.7z"/>
		<path fill="#3A3A3A" d="M250.5,173.5c-0.8,0.4-2,0.8-3.6,0.8c-3.6,0-6-2.4-6-6.4s2.8-6.4,6.8-6.4c1.2,0,2.4,0.4,3.2,0.8l-1.2,1.6
			c-0.4-0.4-1.2-0.8-2.8-0.8c-2.8,0-4.4,2-4.4,4.8c0,2.8,2,4.8,4.4,4.8c1.2,0,2-0.4,2.8-0.8L250.5,173.5z"/>
		<path fill="#3A3A3A" d="M264.1,167.9c0,4.4-3.2,6.4-6,6.4c-3.2,0-6-2.4-6-6.4s2.8-6.4,6-6.4C261.7,161.6,264.1,164,264.1,167.9z
			 M254.1,167.9c0,2.8,1.6,4.8,3.6,4.8s3.6-2,3.6-4.8c0-2-1.2-4.8-3.6-4.8S254.1,165.6,254.1,167.9z"/>
		<path fill="#3A3A3A" d="M266.9,165.2c0-1.2,0-2.4,0-3.2h2v2l0,0c0.8-1.2,2-2.4,4-2.4c1.6,0,2.8,1.2,3.6,2.4l0,0
			c0.4-0.8,0.8-1.2,1.2-1.6c0.8-0.4,1.6-0.8,2.8-0.8c1.6,0,4,1.2,4,5.2v7.2h-2v-6.8c0-2.4-0.8-4-2.8-4c-1.2,0-2.4,0.8-2.8,2
			c0,0.4,0,0.8,0,1.2v7.6h-2.4v-7.2c0-2-0.8-3.2-2.4-3.2c-1.2,0-2.4,1.2-2.8,2.4c0,0.4,0,0.8,0,1.2v7.2h-2
			C266.9,173.9,266.9,165.2,266.9,165.2z"/>
	</g>
</g>
<g>
	<polygon fill="#3498DB" points="462.4,136.4 491.9,136 491.9,133.2 462.4,134 	"/>
	<polygon fill="#3498DB" points="567.5,94 564.7,94 564.7,94 553.9,92.4 564.7,94 	"/>
	<rect x="462.4" y="140.4" fill="#3498DB" width="29.6" height="2.4"/>
	<rect x="545.5" y="136" fill="#3498DB" width="2.8" height="2"/>
	<polygon fill="#3498DB" points="462.4,129.6 491.9,128.8 491.9,126 462.4,127.2 	"/>
	<polygon fill="#3498DB" points="545.5,132.8 548.3,132.4 548.3,130.4 545.5,130.4 	"/>
	<rect x="545.5" y="141.6" fill="#3498DB" width="2.8" height="2"/>
	<polygon fill="#3498DB" points="556.3,50.8 559.5,50 559.5,47.6 556.3,48.4 	"/>
	<polygon fill="#3498DB" points="556.3,45.3 559.5,44.5 559.5,41.7 556.3,42.5 	"/>
	<polygon fill="#3498DB" points="462.4,123.2 491.9,121.6 491.9,118.8 462.4,120.4 	"/>
	<polygon fill="#3498DB" points="556.3,56.8 559.5,56 559.5,53.2 556.3,54 	"/>
	<polygon fill="#3498DB" points="545.5,98.8 548.3,98.4 551.1,98 548.3,98.4 	"/>
	<polygon fill="#3498DB" points="556.3,62.4 559.5,62 559.5,59.2 556.3,60 	"/>
	<polygon fill="#3498DB" points="573.5,94.8 573.5,94.8 571.1,95.2 	"/>
	<polygon fill="#3498DB" points="551.1,121.2 553.9,120.8 553.9,118.4 551.1,118.8 	"/>
	<polygon fill="#3498DB" points="551.1,126.8 553.9,126.4 553.9,124.4 551.1,124.4 	"/>
	<polygon fill="#3498DB" points="545.5,127.2 548.3,126.8 548.3,124.8 545.5,124.8 	"/>
	<rect x="556.7" y="136" fill="#3498DB" width="2.8" height="2"/>
	<rect x="556.7" y="142" fill="#3498DB" width="2.8" height="2"/>
	<polygon fill="#3498DB" points="551.1,132.4 553.9,132.4 553.9,130 551.1,130.4 	"/>
	<polygon fill="#3498DB" points="551.1,104 553.9,103.6 553.9,101.2 551.1,101.6 	"/>
	<polygon fill="#3498DB" points="551.1,115.2 553.9,115.2 553.9,112.8 551.1,112.8 	"/>
	<rect x="551.1" y="136" fill="#3498DB" width="2.8" height="2"/>
	<polygon fill="#3498DB" points="545.5,116 548.3,115.6 548.3,113.2 545.5,113.6 	"/>
	<polygon fill="#3498DB" points="545.5,121.6 548.3,121.2 548.3,118.8 545.5,119.2 	"/>
	<polygon fill="#3498DB" points="545.5,110 548.3,110 548.3,107.6 545.5,108 	"/>
	<rect x="551.1" y="141.6" fill="#3498DB" width="2.8" height="2"/>
	<polygon fill="#3498DB" points="545.5,104.4 548.3,104 548.3,102 545.5,102.4 	"/>
	<polygon fill="#3498DB" points="551.1,109.6 553.9,109.2 553.9,107.2 551.1,107.2 	"/>
	<polygon fill="#3498DB" points="462.4,49.2 491.9,42.1 491.9,38.9 462.4,46.4 	"/>
	<polygon fill="#3498DB" points="462.4,36.1 491.9,27.3 491.9,24.5 462.4,32.9 	"/>
	<polygon fill="#3498DB" points="462.4,42.5 491.9,34.5 491.9,31.7 462.4,39.7 	"/>
	<polygon fill="#3498DB" points="462.4,29.3 491.9,20.1 491.9,17.3 462.4,26.1 	"/>
	<polygon fill="#3498DB" points="462.4,116 491.9,114 491.9,111.6 462.4,113.6 	"/>
	<polygon fill="#3498DB" points="462.4,109.6 491.9,106.8 491.9,104 462.4,106.8 	"/>
	<polygon fill="#3498DB" points="462.4,102.8 491.9,99.6 491.9,97.2 462.4,100 	"/>
	<polygon fill="#3498DB" points="462.4,89.6 491.9,85.2 491.9,82.4 462.4,86.8 	"/>
	<polygon fill="#3498DB" points="462.4,82.8 491.9,78 491.9,75.2 462.4,80 	"/>
	<polygon fill="#3498DB" points="561.9,64.4 561.9,65.6 564.7,66 564.7,63.6 	"/>
	<polygon fill="#3498DB" points="462.4,76 491.9,70.8 491.9,68 462.4,73.2 	"/>
	<polygon fill="#3498DB" points="462.4,62.8 491.9,56.4 491.9,53.2 462.4,59.6 	"/>
	<polygon fill="#3498DB" points="462.4,56 491.9,49.2 491.9,46.1 462.4,53.2 	"/>
	<polygon fill="#3498DB" points="462.4,69.2 491.9,63.6 491.9,60.4 462.4,66.4 	"/>
	<polygon fill="#3498DB" points="564.7,40.1 561.9,40.9 561.9,43.7 564.7,42.5 	"/>
	<polygon fill="#3498DB" points="545.5,59.6 548.3,58.8 548.3,56.4 545.5,57.2 	"/>
	<polygon fill="#3498DB" points="564.7,52 561.9,52.8 561.9,55.2 564.7,54.4 	"/>
	<polygon fill="#3498DB" points="564.7,58 561.9,58.4 561.9,61.2 564.7,60.4 	"/>
	<polygon fill="#3498DB" points="545.5,54 548.3,53.2 548.3,50.8 545.5,51.6 	"/>
	<polygon fill="#3498DB" points="551.1,52.4 553.9,51.6 553.9,49.2 551.1,50 	"/>
	<polygon fill="#3498DB" points="570.3,38.5 567.5,39.3 567.5,41.7 570.3,40.9 	"/>
	<polygon fill="#3498DB" points="551.1,58.4 553.9,57.6 553.9,54.8 551.1,55.6 	"/>
	<polygon fill="#3498DB" points="545.5,48.4 548.3,47.6 548.3,44.9 545.5,45.7 	"/>
	<polygon fill="#3498DB" points="570.3,50.4 567.5,51.2 567.5,53.6 570.3,53.2 	"/>
	<polygon fill="#3498DB" points="570.3,44.5 567.5,45.3 567.5,47.6 570.3,46.8 	"/>
	<polygon fill="#3498DB" points="564.7,46.1 561.9,46.8 561.9,49.2 564.7,48.4 	"/>
	<polygon fill="#3498DB" points="570.3,56.4 567.5,57.2 567.5,59.6 570.3,59.2 	"/>
	<polygon fill="#3498DB" points="570.3,62.4 567.5,63.2 567.5,65.6 570.3,65.2 	"/>
	<polygon fill="#3498DB" points="551.1,46.8 553.9,46.1 553.9,43.3 551.1,44.1 	"/>
	<polygon fill="#3498DB" points="562.3,114.4 565.1,114 565.1,112 562.3,112 	"/>
	<rect x="576.7" y="141.6" fill="#3498DB" width="24.8" height="2"/>
	<polygon fill="#3498DB" points="499.5,85.2 529.1,89.6 529.1,86.8 499.5,82.4 	"/>
	<polygon fill="#3498DB" points="499.5,92.4 529.1,96.4 529.1,93.6 499.5,89.6 	"/>
	<polygon fill="#3498DB" points="576.7,125.6 601.4,127.2 601.4,124.8 576.7,123.6 	"/>
	<polygon fill="#3498DB" points="576.7,119.6 601.4,121.6 601.4,119.2 576.7,117.2 	"/>
	<polygon fill="#3498DB" points="576.7,131.6 601.4,132.8 601.4,130.4 576.7,129.6 	"/>
	<polygon fill="#3498DB" points="576.7,138 601.4,138.4 601.4,136 576.7,135.6 	"/>
	<polygon fill="#3498DB" points="499.5,99.6 529.1,102.8 529.1,100 499.5,97.2 	"/>
	<rect x="499.5" y="140.4" fill="#3498DB" width="29.6" height="2.4"/>
	<polygon fill="#3498DB" points="529.1,59.6 499.5,53.2 499.5,56.4 529.1,62.8 	"/>
	<polygon fill="#3498DB" points="499.5,136 529.1,136.4 529.1,134 499.5,133.2 	"/>
	<polygon fill="#3498DB" points="499.5,121.6 529.1,123.2 529.1,120.4 499.5,118.8 	"/>
	<polygon fill="#3498DB" points="499.5,114.4 529.1,116.4 529.1,113.6 499.5,111.6 	"/>
	<polygon fill="#3498DB" points="499.5,128.8 529.1,129.6 529.1,127.2 499.5,126 	"/>
	<polygon fill="#3498DB" points="499.5,106.8 529.1,109.6 529.1,106.8 499.5,104 	"/>
	<polygon fill="#3498DB" points="573.5,86.4 559.5,84.4 556.3,84 542.3,82 529.1,80 499.1,75.2 499.1,78 529.1,82.8 542.3,84.8 
		546.3,85.2 547.9,85.6 550.7,86 553.5,86 567.5,88 570.3,88.4 573.5,89.2 576.7,89.6 601.4,93.6 601.4,90.8 576.7,86.8 	"/>
	<polygon fill="#3498DB" points="601.4,51.6 576.7,44.5 576.7,46.8 601.4,54 	"/>
	<polygon fill="#3498DB" points="601.4,57.2 576.7,50.4 576.7,53.2 601.4,59.6 	"/>
	<polygon fill="#3498DB" points="601.4,68.4 576.7,62.8 576.7,65.2 601.4,71.2 	"/>
	<polygon fill="#3498DB" points="601.4,62.8 576.7,56.4 576.7,59.2 601.4,65.2 	"/>
	<path fill="#3498DB" d="M404.4,0.1v142.7l127.5,71.1l127.5-71.1V0.1H404.4z M604.6,148h-31.2l0,0h-31.2V99.6l-9.6-1.2V90l0,0v8.4
		V148h-37.2l0,0h-37.2V18.5l37.2-10.4l0,0l0,0l0,0l0,0l37.2,10.4V60l9.6,2l3.6,0.8l2.4,0.4l2.8,0.4h0.8l2-0.4v-2.4l-2.8,0.8V64
		l-2.8-0.4v-0.8l-2.4,0.4l-3.6-0.8V39.3l30.8-8.8l31.2,8.8L604.6,148L604.6,148z"/>
	<polygon fill="#3498DB" points="576.7,113.6 601.4,116 601.4,113.6 576.7,111.2 	"/>
	<polygon fill="#3498DB" points="601.4,74 576.7,68.8 576.7,71.2 601.4,76.4 	"/>
	<polygon fill="#3498DB" points="562.3,72.4 559.5,71.6 557.5,71.6 548.3,70 545.5,69.2 542.3,68.8 529.1,66.4 499.5,60.4 
		499.5,63.6 529.1,69.2 542.3,71.6 551.1,72.8 553.9,73.6 556.7,74 557.1,74 567.5,75.6 570.7,76.4 573.5,76.8 576.7,77.2 601.4,82 
		601.4,79.6 576.7,74.8 573.5,74.4 563.9,72.8 	"/>
	<polygon fill="#3498DB" points="576.7,101.6 601.4,104.4 601.4,102.4 576.7,99.2 	"/>
	<polygon fill="#3498DB" points="576.7,107.6 601.4,110.4 601.4,108 576.7,105.2 	"/>
	<polygon fill="#3498DB" points="576.7,95.2 601.4,98.8 601.4,96.4 576.7,93.2 	"/>
	<polygon fill="#3498DB" points="601.4,46.1 576.7,38.5 576.7,41.3 601.4,48.4 	"/>
	<polygon fill="#3498DB" points="529.1,52.8 499.5,46.1 499.5,49.2 529.1,56 	"/>
	<polygon fill="#3498DB" points="573.5,80.4 562.7,78.4 561.9,78.4 559.1,78 556.3,77.6 547.1,76 545.1,76 542.3,75.2 528.7,73.2 
		499.1,68 499.1,70.8 528.7,76 542.3,78 550.7,79.6 553.5,80 567.5,82 570.3,82.4 573.5,82.8 576.7,83.2 601.4,87.6 601.4,85.2 
		576.3,80.8 	"/>
	<polygon fill="#3498DB" points="562.3,132 565.1,132 565.1,129.6 562.3,130 	"/>
	<polygon fill="#3498DB" points="562.3,126 565.1,126 565.1,123.6 562.3,124 	"/>
	<polygon fill="#3498DB" points="556.7,132.4 559.5,132 559.5,130 556.7,130 	"/>
	<polygon fill="#3498DB" points="562.3,120.4 565.1,120 565.1,117.6 562.3,118 	"/>
	<polygon fill="#3498DB" points="562.3,108.4 565.1,108 565.1,106 562.3,106 	"/>
	<polygon fill="#3498DB" points="562.3,102.4 565.1,102 565.1,100 562.3,100 	"/>
	<rect x="562.3" y="136" fill="#3498DB" width="2.8" height="2"/>
	<polygon fill="#3498DB" points="462.4,96.4 491.9,92.4 491.9,89.6 462.4,93.6 	"/>
	<polygon fill="#3498DB" points="556.7,126.4 559.5,126.4 559.5,124 556.7,124.4 	"/>
	<polygon fill="#3498DB" points="556.7,120.8 559.5,120.4 559.5,118 556.7,118.4 	"/>
	<rect x="567.5" y="142" fill="#3498DB" width="2.8" height="2"/>
	<polygon fill="#3498DB" points="556.7,114.8 559.5,114.8 559.5,112.4 556.7,112.4 	"/>
	<polygon fill="#3498DB" points="556.7,103.2 559.5,102.8 559.5,100.4 556.7,100.8 	"/>
	<polygon fill="#3498DB" points="556.7,108.8 559.5,108.8 559.5,106.4 556.7,106.8 	"/>
	<rect x="562.3" y="142" fill="#3498DB" width="2.8" height="2"/>
	<polygon fill="#3498DB" points="529.1,39.7 499.5,31.7 499.5,34.5 529.1,42.5 	"/>
	<polygon fill="#3498DB" points="567.5,114 570.7,113.6 570.7,111.2 567.5,111.6 	"/>
	<polygon fill="#3498DB" points="567.5,108 570.7,107.6 570.7,105.2 567.5,105.6 	"/>
	<polygon fill="#3498DB" points="529.1,26.1 499.5,17.3 499.5,20.1 529.1,29.3 	"/>
	<polygon fill="#3498DB" points="567.5,101.6 570.7,101.2 570.7,99.2 567.5,99.6 	"/>
	<polygon fill="#3498DB" points="529.1,46.1 499.5,38.9 499.5,41.7 529.1,49.2 	"/>
	<polygon fill="#3498DB" points="529.1,32.9 499.5,24.5 499.5,27.3 529.1,36.1 	"/>
	<polygon fill="#3498DB" points="567.5,126 570.7,125.6 570.7,123.6 567.5,123.6 	"/>
	<polygon fill="#3498DB" points="567.5,132 570.7,131.6 570.7,129.6 567.5,129.6 	"/>
	<rect x="567.5" y="135.6" fill="#3498DB" width="2.8" height="2"/>
	<polygon fill="#3498DB" points="567.5,120 570.7,119.6 570.7,117.2 567.5,117.6 	"/>
	<polyline fill="#3498DB" points="573.5,68 573.5,68 564.7,66 564.7,66.4 	"/>
	<polygon fill="#85D3FF" points="545.5,98.8 548.3,98.4 551.1,98 553.5,97.6 571.1,95.2 573.5,94.8 570.3,94.4 567.5,94 567.5,94 
		564.7,94 553.9,92.4 552.3,92.4 551.1,92 548.3,91.6 545.5,91.2 542.3,90.8 532.7,89.6 532.7,98 542.3,99.6 542.3,99.2 	"/>
	<polygon fill="#BBC7BD" points="552.3,92.4 553.9,92.4 552.7,92.4 551.1,92 548.3,91.6 551.1,92 	"/>
	<polygon fill="#BBC7BD" points="545.5,91.2 548.3,91.6 545.5,91.2 542.3,90.8 532.7,89.6 532.7,89.6 542.3,90.8 	"/>
	<polygon fill="#BBC7BD" points="570.3,94.4 567.5,94 567.5,94 567.5,94 	"/>
	<polygon fill="#BBC7BD" points="551.1,98 553.5,98 571.1,95.2 553.5,97.6 	"/>
	<polygon fill="#BBC7BD" points="542.3,99.2 542.3,99.6 545.5,98.8 	"/>
</g>
<line fill="none" stroke="#3498DB" stroke-width="0.3997" stroke-miterlimit="10" x1="406" y1="142.8" x2="50.7" y2="142.8"/>
<line fill="none" stroke="#3498DB" stroke-width="0.3997" stroke-miterlimit="10" x1="406" y1="16.1" x2="50.7" y2="16.1"/>
</svg>
