<?xml version="1.0" encoding="utf-8"?>
<!-- Generator: Adobe Illustrator 24.1.1, SVG Export Plug-In . SVG Version: 6.00 Build 0)  -->
<svg version="1.1" id="Layer_1" xmlns="http://www.w3.org/2000/svg" xmlns:xlink="http://www.w3.org/1999/xlink" x="0px" y="0px"
	 viewBox="0 0 210 50" enable-background="new 0 0 210 50" xml:space="preserve">
<g>
	<path fill="#E23F2C" d="M24.5,15.6c0.3-0.7,0.7-1.4,1.1-2c3-4.5,7-7.5,12.2-8.9c3.2-0.9,6.4-1,9.6-0.4c3.7,0.7,7,2.4,9.8,4.9
		c0.2,0.2,0.2,0.3,0,0.5c-1.8,1.8-3.7,3.6-5.5,5.5c-0.2,0.2-0.3,0.2-0.5,0c-2.5-2.2-5.5-3.2-8.8-2.9c-5.4,0.5-9,3.5-11,8.5
		c0,0.1-0.1,0.1-0.1,0.2c-1.7-1.3-3.3-2.6-5-3.9C25.8,16.5,25.2,16,24.5,15.6z"/>
	<path fill="#2CA14C" d="M31.4,29.1c0.4,1.1,0.9,2.1,1.5,3.1c2.2,3.1,5.1,5,8.8,5.5c3.1,0.4,6-0.1,8.6-1.8c0.1,0,0.1-0.1,0.2-0.1
		c0.5,0.4,1,0.8,1.5,1.2c1.2,0.9,2.3,1.8,3.5,2.7c0.5,0.4,1.2,0.8,1.6,1.3c-0.7,0.7-1.5,1.3-2.4,1.9c-2.7,1.7-5.7,2.7-8.9,3
		s-6.3,0.1-9.3-1c-5.3-1.8-9.2-5.3-11.9-10.2c-0.1-0.1-0.1-0.2-0.1-0.3c0.2-0.1,0.4-0.3,0.6-0.4C27.2,32.4,29.3,30.7,31.4,29.1z"/>
	<path fill="#3C7DEB" d="M52,34.7C52,34.6,52.1,34.6,52,34.7c0.1-0.1,0.2-0.1,0.2-0.2l0,0c0.1,0,0.1,0,0.1-0.1l0,0
		c0.1,0,0.1-0.1,0.1-0.1l0,0c0.1,0,0.1,0,0.1-0.1l0,0c0,0,0,0,0.1-0.1c0.6-0.8,1.2-1.7,1.6-2.6c0.3-0.6,0.4-1.2,0.6-1.9
		c0.1-0.3,0-0.3-0.3-0.3c-2.5,0-5.1,0-7.6,0c-1.1,0-2.1,0-3.2,0c-0.3,0-0.4-0.1-0.4-0.4c0-2.5,0-5,0-7.5c0-0.3,0.1-0.3,0.4-0.3
		c4.2,0,8.4,0,12.6,0c2.2,0,4.4,0,6.6,0c0.3,0,0.4,0.1,0.4,0.3c0.4,2.4,0.4,4.7,0.2,7.1c-0.3,2.7-1.1,5.3-2.4,7.7
		c-0.5,1-1.1,1.9-1.8,2.7c-0.2,0-0.2,0.1-0.2,0.2l0,0c-0.1,0-0.1,0.1-0.1,0.1l0,0c0,0,0,0-0.1,0.1l0,0c-0.2,0-0.3,0.2-0.3,0.4l0,0
		c0,0,0,0-0.1,0.1l0,0c-0.1,0-0.1,0-0.1,0.1l0,0c0,0,0,0-0.1,0.1l0,0c0,0,0,0-0.1,0.1l0,0c-0.1,0-0.1,0-0.1,0.1l0,0c0,0,0,0-0.1,0.1
		l0,0c0,0,0,0-0.1,0.1l0,0c0,0,0,0-0.1,0.1l0,0c-0.1,0-0.1,0.1-0.1,0.1l0,0c0,0,0,0-0.1,0.1l0,0c-0.1,0-0.1,0-0.1,0.1l0,0
		c-0.1,0-0.1,0.1-0.1,0.1l0,0c-0.1,0-0.1,0-0.1,0.1l0,0c0,0,0,0-0.1,0.1l0,0c0,0,0,0-0.1,0.1l0,0c-0.1,0-0.2-0.1-0.3-0.1
		c-0.7-0.5-1.4-1.1-2.1-1.6c-1.4-1.1-2.7-2.1-4.1-3.2c-0.1-0.1-0.1-0.2-0.1-0.3l0,0c0.2,0,0.4-0.1,0.4-0.3l0,0c0.1,0,0.1,0,0.1-0.1
		l0,0c0.1,0,0.2-0.1,0.2-0.2l0,0c0,0,0,0,0.1-0.1l0,0c0,0,0,0,0.1-0.1l0,0c0.1,0,0.1,0,0.1-0.1l0,0C51.9,34.8,51.9,34.8,52,34.7
		C51.9,34.8,51.9,34.8,52,34.7C52,34.8,52,34.7,52,34.7z"/>
	<path fill="#EEB403" d="M31.4,29.1c-2.1,1.6-4.2,3.3-6.3,4.9c-0.2,0.2-0.4,0.3-0.6,0.5c-0.6-1.1-1-2.2-1.4-3.4
		c-0.7-2.2-1-4.5-0.9-6.9c0.1-3,0.8-5.8,2.1-8.5c0-0.1,0.1-0.2,0.1-0.2c0.7,0.4,1.3,1,1.9,1.4c1.7,1.3,3.3,2.6,5,3.9
		c-0.3,1-0.5,1.9-0.6,2.9c-0.1,1.5,0,3.1,0.4,4.5C31.2,28.6,31.3,28.9,31.4,29.1z"/>
	<path fill="#358DA3" d="M50.9,35.7c0,0.1,0,0.2,0.1,0.3c1.4,1.1,2.7,2.1,4.1,3.2c0.7,0.5,1.4,1.1,2.1,1.6c0.1,0.1,0.2,0.1,0.3,0.1
		c-0.1,0.1-0.1,0.2-0.3,0.2c-0.5-0.5-1.1-0.9-1.6-1.3c-1.1-0.9-2.3-1.8-3.5-2.7c-0.5-0.4-1-0.8-1.5-1.2
		C50.6,35.8,50.7,35.7,50.9,35.7z"/>
	<path fill="#358DA3" d="M51.2,35.3c0,0.2-0.2,0.3-0.4,0.3C51,35.5,51.1,35.4,51.2,35.3z"/>
	<path fill="#358DA3" d="M58.6,39.6c0-0.2,0.1-0.3,0.3-0.4C58.9,39.4,58.8,39.5,58.6,39.6z"/>
	<path fill="#358DA3" d="M51.6,35.1c0,0.1-0.1,0.2-0.2,0.2C51.4,35.2,51.5,35.1,51.6,35.1z"/>
	<path fill="#358DA3" d="M58.2,40.1C58.2,40,58.2,40,58.2,40.1C58.3,40,58.3,40.1,58.2,40.1z"/>
	<path fill="#358DA3" d="M58.4,39.8C58.4,39.7,58.4,39.7,58.4,39.8C58.5,39.7,58.5,39.8,58.4,39.8z"/>
	<path fill="#358DA3" d="M52.5,34.1C52.5,34.2,52.5,34.2,52.5,34.1C52.4,34.2,52.5,34.2,52.5,34.1z"/>
	<path fill="#358DA3" d="M59.1,39.1C59.1,39,59.2,39,59.1,39.1C59.2,39,59.2,39,59.1,39.1z"/>
	<path fill="#358DA3" d="M52.2,34.5c0,0.1,0,0.1-0.1,0.1C52.1,34.6,52.2,34.5,52.2,34.5z"/>
	<path fill="#358DA3" d="M51.8,34.9c0,0.1-0.1,0.1-0.1,0.1C51.7,34.9,51.8,34.9,51.8,34.9z"/>
	<path fill="#358DA3" d="M52.4,34.3C52.4,34.4,52.4,34.4,52.4,34.3C52.3,34.3,52.3,34.3,52.4,34.3z"/>
	<path fill="#358DA3" d="M52.3,34.4C52.3,34.5,52.2,34.5,52.3,34.4C52.2,34.4,52.3,34.4,52.3,34.4z"/>
	<path fill="#358DA3" d="M52,34.7C52,34.8,52,34.8,52,34.7C51.9,34.7,52,34.7,52,34.7z"/>
	<path fill="#358DA3" d="M51.4,35.3c0,0.1-0.1,0.1-0.1,0.1C51.3,35.3,51.3,35.3,51.4,35.3z"/>
	<path fill="#358DA3" d="M59,39.2C59,39.1,59,39.1,59,39.2C59.1,39.1,59,39.1,59,39.2z"/>
	<path fill="#358DA3" d="M57.9,40.4C57.9,40.3,57.9,40.3,57.9,40.4C58,40.3,58,40.4,57.9,40.4z"/>
	<path fill="#358DA3" d="M57.8,40.5C57.8,40.4,57.9,40.4,57.8,40.5C57.8,40.5,57.8,40.5,57.8,40.5z"/>
	<path fill="#358DA3" d="M57.7,40.6C57.7,40.5,57.7,40.5,57.7,40.6C57.8,40.6,57.7,40.6,57.7,40.6z"/>
	<path fill="#358DA3" d="M57.6,40.7C57.6,40.6,57.7,40.6,57.6,40.7C57.7,40.7,57.6,40.7,57.6,40.7z"/>
	<path fill="#358DA3" d="M58,40.3C58,40.2,58.1,40.2,58,40.3C58.1,40.2,58,40.2,58,40.3z"/>
	<path fill="#358DA3" d="M57.5,40.8C57.5,40.8,57.5,40.7,57.5,40.8C57.6,40.7,57.5,40.8,57.5,40.8z"/>
</g>
<g>
	<path fill="#1C1C1C" d="M97.2,34.4c-0.6,0.9-1.7,1.8-3.2,2.6s-3.5,1.2-5.9,1.2c-3,0-5.4-1-7.3-2.9s-2.9-4.5-2.9-7.6v-5.3
		c0-3.1,0.9-5.6,2.8-7.6s4.3-2.9,7.2-2.9c2.8,0,5.1,0.8,6.8,2.3s2.5,3.4,2.4,5.8v0.1h-3.3c0-1.6-0.5-2.9-1.5-3.9s-2.4-1.6-4.3-1.6
		c-2,0-3.5,0.7-4.7,2.2s-1.8,3.3-1.8,5.6v5.3c0,2.3,0.6,4.1,1.9,5.6c1.3,1.5,2.9,2.2,4.9,2.2c1.5,0,2.7-0.2,3.6-0.6s1.5-0.9,2-1.4
		v-5.8h-5.8V25h9.3v9.4H97.2z"/>
	<path fill="#1C1C1C" d="M101.9,28.1c0-2.8,0.8-5.1,2.3-7s3.6-2.7,6.2-2.7s4.7,0.9,6.2,2.7s2.3,4.1,2.3,7v0.4c0,2.8-0.8,5.2-2.3,7
		s-3.6,2.7-6.2,2.7s-4.7-0.9-6.2-2.7s-2.3-4.1-2.3-7V28.1z M105.4,28.5c0,2,0.4,3.7,1.3,5s2.1,2,3.8,2c1.7,0,2.9-0.7,3.8-2
		s1.3-3,1.3-5v-0.4c0-2-0.4-3.7-1.3-5s-2.1-2-3.8-2c-1.7,0-2.9,0.7-3.8,2s-1.3,3-1.3,5V28.5z"/>
	<path fill="#1C1C1C" d="M122.4,28.1c0-2.8,0.8-5.1,2.3-7s3.6-2.7,6.2-2.7s4.7,0.9,6.2,2.7s2.3,4.1,2.3,7v0.4c0,2.8-0.8,5.2-2.3,7
		s-3.6,2.7-6.2,2.7s-4.7-0.9-6.2-2.7s-2.3-4.1-2.3-7V28.1z M125.8,28.5c0,2,0.4,3.7,1.3,5s2.1,2,3.8,2c1.7,0,2.9-0.7,3.8-2
		s1.3-3,1.3-5v-0.4c0-2-0.4-3.7-1.3-5s-2.1-2-3.8-2c-1.7,0-2.9,0.7-3.8,2s-1.3,3-1.3,5V28.5z"/>
	<path fill="#1C1C1C" d="M143,28.7c0-3.1,0.7-5.5,2-7.4s3.1-2.8,5.5-2.8c1.2,0,2.3,0.2,3.2,0.7s1.7,1.2,2.3,2.1l0.4-2.5h2.8v19.1
		c0,2.4-0.7,4.3-2.1,5.6s-3.5,2-6.1,2c-0.9,0-1.9-0.1-3-0.4s-2-0.6-2.8-1l0.5-2.7c0.7,0.4,1.5,0.6,2.4,0.9s1.9,0.3,2.8,0.3
		c1.7,0,2.9-0.4,3.7-1.2s1.2-1.9,1.2-3.5v-2.2c-0.6,0.8-1.4,1.4-2.2,1.8s-1.9,0.6-3,0.6c-2.3,0-4.1-0.8-5.4-2.5s-2-3.9-2-6.6v-0.3
		H143z M146.5,29c0,1.9,0.4,3.4,1.2,4.6s2,1.7,3.6,1.7c1,0,1.9-0.2,2.6-0.7s1.3-1.1,1.7-2v-8.8c-0.4-0.8-1-1.5-1.7-1.9
		s-1.6-0.7-2.6-0.7c-1.7,0-2.9,0.7-3.7,2.1s-1.2,3.2-1.2,5.3V29H146.5z"/>
	<path fill="#1C1C1C" d="M167.8,37.8h-3.5V10.4h3.5V37.8z"/>
	<path fill="#1C1C1C" d="M181,38.2c-2.7,0-4.9-0.9-6.4-2.6s-2.3-4-2.3-6.9v-0.8c0-2.7,0.8-5,2.4-6.8s3.5-2.7,5.8-2.7
		c2.5,0,4.5,0.8,5.7,2.4s1.9,3.7,1.9,6.3V29h-12.2l-0.1,0.1c0,1.9,0.4,3.5,1.3,4.6s2.1,1.8,3.9,1.8c1.2,0,2.2-0.2,3.1-0.5
		s1.6-0.8,2.3-1.4l1.4,2.3c-0.7,0.7-1.6,1.2-2.7,1.7S182.6,38.2,181,38.2z M180.5,21.2c-1.2,0-2.2,0.5-3,1.4s-1.3,2.1-1.5,3.6v0.1
		h8.6V26c0-1.4-0.3-2.5-1-3.4S181.9,21.2,180.5,21.2z"/>
</g>
</svg>
